<!--?xml version="1.0" standalone="no"?-->
              <svg id="sw-js-blob-svg" viewBox="0 0 100 100" xmlns="http://www.w3.org/2000/svg" version="1.1">
                    <defs> 
                        <linearGradient id="sw-gradient" x1="0" x2="1" y1="1" y2="0">
                            <stop id="stop1" stop-color="rgba(248, 117, 55, 1)" offset="0%"></stop>
                            <stop id="stop2" stop-color="rgba(251, 168, 31, 1)" offset="100%"></stop>
                        </linearGradient>
                    </defs>
                <path fill="url(#sw-gradient)" d="M10.7,-18.5C16.1,-15.3,24.5,-17.1,30.3,-14.9C36.2,-12.7,39.5,-6.3,38.4,-0.6C37.3,5.1,31.8,10.1,27.9,15.6C23.9,21.1,21.4,26.9,17,29.9C12.6,32.9,6.3,33,-0.2,33.3C-6.7,33.6,-13.3,34.2,-16,30.1C-18.6,26.1,-17.1,17.6,-17.1,11.8C-17,6,-18.3,3,-21.8,-2C-25.3,-7.1,-31,-14.1,-29.2,-16.7C-27.4,-19.3,-18.2,-17.4,-12.1,-20.2C-6,-23,-3,-30.5,-0.2,-30.2C2.6,-29.8,5.2,-21.6,10.7,-18.5Z" width="100%" height="100%" transform="translate(50 50)" stroke-width="0" style="transition: all 0.3s ease 0s;" stroke="url(#sw-gradient)"></path>
              </svg>